<svg width="134" height="189" viewBox="0 0 134 189" fill="none" xmlns="http://www.w3.org/2000/svg">
<path d="M66.9183 188.522L12.3854 173.381L0.233032 37.0491H133.767L121.602 173.359L66.9183 188.522Z" fill="#264DE4"/>
<path d="M111.187 164.68L121.583 48.1962H67V176.932L111.187 164.68Z" fill="#2965F1"/>
<path d="M28.0922 98.7596L29.5905 115.48H67V98.7596H28.0922Z" fill="#EBEBEB"/>
<path d="M25.0815 64.9169L26.6012 81.6376H67V64.9169H25.0815Z" fill="#EBEBEB"/>
<path d="M67 142.185L66.9268 142.204L48.3089 137.176L47.1187 123.84H30.3374L32.6795 150.094L66.9231 159.602L67 159.581V142.185Z" fill="#EBEBEB"/>
<path d="M105.801 98.7596L108.819 64.9169H66.9422V81.6376H90.4982L88.9771 98.7596H66.9422V115.48H87.5274L85.587 137.165L66.9422 142.199V159.594L101.213 150.094L101.465 147.269L105.393 103.25L105.801 98.7596Z" fill="white"/>
</svg>
