<svg width="82" height="80" viewBox="0 0 82 80" fill="none" xmlns="http://www.w3.org/2000/svg">
<path d="M41.0003 0C18.3594 0 0 18.3381 0 40.9603C0 59.0577 11.7478 74.4114 28.0385 79.8275C30.0876 80.2066 30.8399 78.9389 30.8399 77.8571C30.8399 76.8803 30.8019 73.6537 30.7842 70.2311C19.3779 72.7089 16.971 65.3983 16.971 65.3983C15.1059 60.6639 12.4186 59.405 12.4186 59.405C8.69869 56.8628 12.6991 56.915 12.6991 56.915C16.8162 57.2039 18.9841 61.136 18.9841 61.136C22.6409 67.3979 28.5756 65.5876 30.9152 64.541C31.2832 61.8936 32.3458 60.0867 33.5183 59.0638C24.4116 58.0281 14.8384 54.5159 14.8384 38.821C14.8384 34.3491 16.4401 30.6952 19.0628 27.8267C18.6371 26.795 17.2337 22.629 19.46 16.987C19.46 16.987 22.903 15.8861 30.738 21.1856C34.0085 20.278 37.516 19.8229 41.0003 19.8073C44.4847 19.8229 47.9949 20.278 51.2715 21.1856C59.097 15.8861 62.5352 16.987 62.5352 16.987C64.7669 22.629 63.3629 26.795 62.9372 27.8267C65.5661 30.6952 67.1568 34.3491 67.1568 38.821C67.1568 54.5532 57.5653 58.0172 48.4355 59.0312C49.9061 60.3023 51.2165 62.795 51.2165 66.6165C51.2165 72.0971 51.1689 76.508 51.1689 77.8571C51.1689 78.9471 51.907 80.2243 53.9852 79.8221C70.2671 74.3998 82 59.0516 82 40.9603C82 18.3381 63.6433 0 41.0003 0ZM15.356 58.3489C15.2657 58.5524 14.9452 58.6134 14.6532 58.4737C14.3559 58.3401 14.1888 58.0626 14.2853 57.8585C14.3735 57.6489 14.6947 57.5905 14.9914 57.731C15.2894 57.8646 15.4592 58.1447 15.356 58.3489ZM17.3727 60.1466C17.1772 60.3277 16.7949 60.2436 16.5356 59.9574C16.2674 59.6718 16.2172 59.29 16.4154 59.1062C16.6171 58.9251 16.9878 59.0098 17.2566 59.2954C17.5248 59.5843 17.5771 59.9635 17.3727 60.1466ZM18.7563 62.4468C18.5051 62.6212 18.0943 62.4577 17.8404 62.0934C17.5892 61.7292 17.5892 61.2924 17.8458 61.1174C18.1004 60.9424 18.5051 61.0998 18.7624 61.4613C19.0129 61.8316 19.0129 62.2684 18.7563 62.4468ZM21.0962 65.1108C20.8715 65.3584 20.3928 65.2919 20.0425 64.9541C19.684 64.6238 19.5842 64.1551 19.8096 63.9075C20.0371 63.6592 20.5184 63.7291 20.8715 64.0642C21.2273 64.3938 21.3359 64.8659 21.0962 65.1108ZM24.1203 66.0101C24.0212 66.3309 23.5602 66.4768 23.0958 66.3404C22.6321 66.2 22.3286 65.8242 22.4223 65.5C22.5187 65.1772 22.9817 65.0252 23.4495 65.1711C23.9126 65.3108 24.2167 65.6838 24.1203 66.0101ZM27.5619 66.3916C27.5735 66.7294 27.1797 67.0095 26.6922 67.0156C26.202 67.0264 25.8055 66.7531 25.8 66.4207C25.8 66.0796 26.185 65.8021 26.6752 65.794C27.1627 65.7845 27.5619 66.0558 27.5619 66.3916ZM30.9429 66.2621C31.0013 66.5917 30.6625 66.9302 30.1784 67.0204C29.7024 67.1072 29.2618 66.9037 29.2014 66.5768C29.1423 66.239 29.4872 65.9006 29.9625 65.8131C30.4472 65.729 30.8811 65.927 30.9429 66.2621Z" fill="#161614"/>
</svg>
