<svg width="135" height="190" viewBox="0 0 135 190" fill="none" xmlns="http://www.w3.org/2000/svg">
<g clip-path="url(#clip0)">
<path d="M134.53 9.24512L122.274 146.277L67.1829 161.52L12.2431 146.298L0 9.24512H134.53Z" fill="#E44D26"/>
<path d="M67.2652 149.869L111.782 137.551L122.255 20.4512H67.2652V149.869Z" fill="#F16529"/>
<path d="M43.44 54.0695H67.2652V37.2604H25.034L25.4371 41.77L29.5765 88.091H67.2652V71.2822H44.9791L43.44 54.0695Z" fill="#EBEBEB"/>
<path d="M47.2355 96.4958H30.329L32.6885 122.888L67.1877 132.447L67.2652 132.425V114.937L67.1914 114.957L48.4346 109.902L47.2355 96.4958Z" fill="#EBEBEB"/>
<path d="M67.207 88.091H87.9458L85.9909 109.891L67.207 114.951V132.439L101.734 122.888L101.987 120.048L105.945 75.7959L106.356 71.2822H67.207V88.091Z" fill="white"/>
<path d="M67.207 54.0285V54.0695H107.888L108.226 50.2914L108.993 41.77L109.396 37.2604H67.207V54.0285Z" fill="white"/>
</g>
<defs>
<clipPath id="clip0">
<rect width="135" height="190" fill="white"/>
</clipPath>
</defs>
</svg>
