<svg width="124" height="124" viewBox="0 0 124 124" fill="none" xmlns="http://www.w3.org/2000/svg">
<path d="M123.633 112.742C123.633 114.346 123.346 115.836 122.773 117.211C122.201 118.586 121.398 119.789 120.367 120.82C119.393 121.794 118.219 122.568 116.844 123.141C115.469 123.714 113.979 124 112.375 124H31.7656C29.7031 124 27.4688 123.771 25.0625 123.312C22.7135 122.797 20.3646 122.023 18.0156 120.992C15.724 119.961 13.5182 118.643 11.3984 117.039C9.27865 115.378 7.38802 113.401 5.72656 111.109C4.1224 108.76 2.83333 106.068 1.85938 103.031C0.885417 99.9375 0.398438 96.4714 0.398438 92.6328V32.1328C0.398438 30.0703 0.627604 27.8646 1.08594 25.5156C1.60156 23.1094 2.375 20.7604 3.40625 18.4688C4.4375 16.1198 5.78385 13.8854 7.44531 11.7656C9.10677 9.64583 11.0833 7.78385 13.375 6.17969C15.724 4.51823 18.4167 3.20052 21.4531 2.22656C24.4896 1.2526 27.9271 0.765625 31.7656 0.765625H122.602V23.1094H31.7656C28.8438 23.1094 26.6094 23.8828 25.0625 25.4297C23.5156 26.9766 22.7422 29.2682 22.7422 32.3047V92.6328C22.7422 95.4974 23.5156 97.7318 25.0625 99.3359C26.6667 100.883 28.901 101.656 31.7656 101.656H101.289V73.6406H41.8203V51.125H112.375C113.979 51.125 115.469 51.4401 116.844 52.0703C118.219 52.6432 119.393 53.4453 120.367 54.4766C121.398 55.5078 122.201 56.7109 122.773 58.0859C123.346 59.4036 123.633 60.8359 123.633 62.3828V112.742Z" fill="url(#paint0_linear)"/>
<defs>
<linearGradient id="paint0_linear" x1="61.5" y1="-50" x2="61.5" y2="174" gradientUnits="userSpaceOnUse">
<stop offset="0.296875" stop-color="#FD0000"/>
<stop offset="0.760417" stop-color="#2B4CF0"/>
</linearGradient>
</defs>
</svg>
